<?xml version="1.0" encoding="UTF-8" standalone="no"?>
<svg width="400px" height="400px" viewBox="0 0 40 40" version="1.1" xmlns="http://www.w3.org/2000/svg" xmlns:xlink="http://www.w3.org/1999/xlink" style="background: #FFFFFF;">
    <!-- Generator: Sketch 41.1 (35376) - http://www.bohemiancoding.com/sketch -->
    <title>02-thubmle-low</title>
    <desc>Created with Sketch.</desc>
    <defs>
    </defs>
    <g id="06-PP:-Clothing-One-Product" stroke="none" stroke-width="1" fill="transparent" fill-rule="evenodd">
        <g id="02-thubmle-low" fill="#000000">
            <g id="Page-1" transform="translate(6.000000, 4.000000)">
                <path d="M0.111,31.205 L26.874,31.205 L26.874,28.995 L0.111,28.995 L0.111,31.205 Z M13.393,22.321 C8.464,22.321 4.464,18.321 4.464,13.393 C4.464,8.464 8.464,4.464 13.393,4.464 C18.321,4.464 22.299,8.464 22.299,13.393 C22.299,18.321 18.321,22.321 13.393,22.321 L13.393,22.321 Z M2.254,12.288 C2.851,6.652 7.624,2.232 13.393,2.232 C19.536,2.232 24.553,7.249 24.553,13.393 C24.553,19.161 20.133,23.934 14.498,24.509 L24.575,24.509 L24.575,2.21 L2.254,2.21 L2.254,12.288 Z M2.254,14.52 C2.807,19.802 6.983,23.978 12.265,24.509 L2.254,24.509 L2.254,14.52 Z M0,26.785 L26.785,26.785 L26.785,0 L0,0 L0,26.785 Z" id="Fill-1"></path>
            </g>
        </g>
    </g>
</svg>