<?xml version="1.0" encoding="UTF-8" standalone="no"?>
<svg width="400px" height="400px" viewBox="0 0 40 40" version="1.1" xmlns="http://www.w3.org/2000/svg" xmlns:xlink="http://www.w3.org/1999/xlink" style="background: #FFFFFF;">
    <!-- Generator: Sketch 41.1 (35376) - http://www.bohemiancoding.com/sketch -->
    <title>01-wash-cold</title>
    <desc>Created with Sketch.</desc>
    <defs></defs>
    <g id="06-PP:-Clothing-One-Product" stroke="none" stroke-width="1" fill="transparent" fill-rule="evenodd">
        <g id="01-wash-cold" fill="#000000">
            <g id="Page-1" transform="translate(2.000000, 10.000000)">
                <path d="M18.143,8.29 C19.678,8.29 20.878,9.49 20.878,11.025 C20.878,12.56 19.678,13.761 18.143,13.761 C16.608,13.761 15.408,12.56 15.408,11.025 C15.408,9.49 16.608,8.29 18.143,8.29 L18.143,8.29 Z M3.266,1.926 C4.634,1.535 5.973,1.089 7.48,1.089 C9.379,1.089 10.942,2.205 12.84,2.205 C14.682,2.205 16.189,1.089 18.143,1.089 C20.041,1.089 21.548,2.205 23.446,2.205 C25.344,2.205 26.852,1.089 28.749,1.089 C30.285,1.089 31.624,1.535 33.02,1.926 L33.411,0 L36.258,0 L31.876,20.878 L4.382,20.878 L0,0 L2.903,0 L3.266,1.926 Z M32.601,4.019 C31.345,3.685 30.117,3.322 28.749,3.322 C26.852,3.322 25.344,4.382 23.446,4.382 C21.548,4.382 20.041,3.322 18.143,3.322 C16.189,3.322 14.682,4.382 12.84,4.382 C10.942,4.382 9.379,3.322 7.48,3.322 C6.141,3.322 4.913,3.685 3.685,4.019 L6.615,18.673 L29.671,18.673 L32.601,4.019 Z" id="Fill-1"></path>
            </g>
        </g>
    </g>
</svg>