<?xml version="1.0" encoding="UTF-8" standalone="no"?>
<svg width="400px" height="400px" viewBox="0 0 40 40" version="1.1" xmlns="http://www.w3.org/2000/svg" xmlns:xlink="http://www.w3.org/1999/xlink" style="background: #FFFFFF;">
    <!-- Generator: Sketch 41.1 (35376) - http://www.bohemiancoding.com/sketch -->
    <title>03-iron-cool</title>
    <desc>Created with Sketch.</desc>
    <defs></defs>
    <g id="06-PP:-Clothing-One-Product" stroke="none" stroke-width="1" fill="none" fill-rule="evenodd">
        <g id="03-iron-cool" fill="#000000">
            <path d="M20,20.870191 C21.3044561,20.870191 22.3423748,21.9081096 22.3423748,23.2125657 C22.3423748,24.5178522 21.3044561,25.5557708 20,25.5557708 C18.6947135,25.5557708 17.6576252,24.5178522 17.6576252,23.2125657 C17.6576252,21.9081096 18.6947135,20.870191 20,20.870191 L20,20.870191 Z M32.6028231,18.5269859 L34.4411846,27.8682535 L4.96512593,27.8682535 L5.97398284,22.7384445 C6.44810407,20.3063936 7.96097426,18.5269859 11.1037919,18.5269859 L32.6028231,18.5269859 Z M8.46498754,10.3722668 L30.9421533,10.3722668 L32.1287019,16.2145032 L10.8073623,16.1846111 C7.45613064,16.1846111 4.40215887,18.7644617 3.63077775,22.4710767 L2,30.1815666 L38,30.1815666 L33.3144201,8 L8.99806255,8 L8.46498754,10.3722668 Z" id="Fill-1"></path>
        </g>
    </g>
</svg>