<?xml version="1.0" encoding="UTF-8" standalone="no"?>
<svg width="400px" height="400px" viewBox="0 0 40 40" version="1.1" xmlns="http://www.w3.org/2000/svg" xmlns:xlink="http://www.w3.org/1999/xlink" style="background: #FFFFFF;">
    <!-- Generator: Sketch 41.1 (35376) - http://www.bohemiancoding.com/sketch -->
    <title>04-no-dry-clean</title>
    <desc>Created with Sketch.</desc>
    <defs></defs>
    <g id="06-PP:-Clothing-One-Product" stroke="none" stroke-width="1" fill="none" fill-rule="evenodd">
        <g id="04-no-dry-clean" fill="#000000">
            <g id="Page-1" transform="translate(2.000000, 6.000000)">
                <path d="M27.6237202,7.8769247 L17.9720475,12.3976522 L8.34785355,7.8769247 C10.4286579,4.7434001 13.9781539,2.66259574 17.9995262,2.66259574 C21.9934198,2.66259574 25.5438633,4.7434001 27.6237202,7.8769247 M29.0384018,17.5011186 L21.8550786,14.1724002 L29.0109231,10.8171505 C29.3435106,11.8982971 29.537757,13.0353486 29.537757,14.2008265 C29.537757,15.3653568 29.3435106,16.4749296 29.0384018,17.5011186 M8.32037481,20.496302 L17.9720475,16.0030532 L27.6511989,20.496302 C25.5988208,23.6582528 22.0208986,25.7381097 17.9995262,25.7381097 C13.9506751,25.7381097 10.3727529,23.6582528 8.32037481,20.496302 M4.49324876,18.6656489 L0,20.773932 L1.38720291,23.7132103 L5.87950412,21.6333535 C8.34785355,25.7106309 12.8411023,28.4007054 17.9995262,28.4007054 C23.1304714,28.4007054 27.5962414,25.7106309 30.0920696,21.6333535 L34.6687021,23.7691154 L36,20.773932 L31.4792725,18.6381702 C31.9502014,17.2509673 32.2003527,15.7538494 32.2003527,14.2008265 C32.2003527,12.6193773 31.9227226,11.1222594 31.4508462,9.68009897 L36,7.57181586 L34.6687021,4.57663254 L30.0645908,6.73987313 C27.5403364,2.69102203 23.0755139,0 17.9995262,0 C12.8970073,0 8.40375859,2.69102203 5.90793041,6.73987313 L1.38720291,4.63253757 L0,7.57181586 L4.5207275,9.65167268 C4.0488511,11.0938331 3.7996473,12.6193773 3.7996473,14.2008265 C3.7996473,15.7813281 4.0488511,17.2793936 4.49324876,18.6656489 M6.9331719,17.5285974 L14.1449214,14.1724002 L6.96159819,10.7887242 C6.62806306,11.8708183 6.46224304,13.0353486 6.46224304,14.2008265 C6.46224304,15.3653568 6.62806306,16.4749296 6.9331719,17.5285974" id="Fill-1"></path>
            </g>
        </g>
    </g>
</svg>